<svg width="64" height="64" viewBox="0 0 64 64" fill="none" xmlns="http://www.w3.org/2000/svg">
<g id="icon-email">
<path id="Vector" d="M56.889 10.6667H7.11122C6.16823 10.6667 5.26386 11.0414 4.59706 11.7081C3.93027 12.3749 3.55566 13.2793 3.55566 14.2223V49.7779C3.55566 50.7209 3.93027 51.6252 4.59706 52.292C5.26386 52.9588 6.16823 53.3334 7.11122 53.3334H56.889C57.832 53.3334 58.7364 52.9588 59.4032 52.292C60.07 51.6252 60.4446 50.7209 60.4446 49.7779V14.2223C60.4446 13.2793 60.07 12.3749 59.4032 11.7081C58.7364 11.0414 57.832 10.6667 56.889 10.6667ZM54.1512 49.7779H10.0623L22.5068 36.9067L19.9468 34.4356L7.11122 47.7156V16.9245L29.209 38.9156C29.8752 39.5779 30.7763 39.9496 31.7157 39.9496C32.655 39.9496 33.5562 39.5779 34.2223 38.9156L56.889 16.3734V47.4845L43.8046 34.4001L41.2979 36.9067L54.1512 49.7779ZM9.44011 14.2223H54.009L31.7157 36.3912L9.44011 14.2223Z" fill="#B1B8C0"/>
</g>
</svg>
