<svg width="32" height="32" viewBox="0 0 32 32" fill="none" xmlns="http://www.w3.org/2000/svg">
<path d="M11.0245 27C8.07081 27 5.31746 26.1409 3 24.6586C4.9676 24.7859 8.43998 24.481 10.5998 22.4209C7.35072 22.2718 5.88546 19.7799 5.69433 18.715C5.9704 18.8215 7.28701 18.9493 8.03027 18.6511C4.29278 17.714 3.71941 14.4341 3.84683 13.4331C4.54761 13.9229 5.73681 14.0933 6.20399 14.0507C2.72133 11.5588 3.97424 7.81034 4.59008 7.00101C7.08936 10.4636 10.835 12.4083 15.4689 12.5164C15.3815 12.1332 15.3354 11.7343 15.3354 11.3245C15.3354 8.38388 17.7122 6 20.6443 6C22.1762 6 23.5566 6.65078 24.5256 7.69172C25.5493 7.45184 27.09 6.89028 27.8432 6.40467C27.4636 7.76775 26.2816 8.90484 25.5667 9.32629C25.5726 9.34062 25.5609 9.31189 25.5667 9.32629C26.1947 9.23129 27.8939 8.90473 28.5652 8.44929C28.2333 9.21505 26.9802 10.4883 25.9518 11.2011C26.1432 19.6391 19.6872 27 11.0245 27Z" fill="#B0B8C1"/>
</svg>
